<svg xmlns="http://www.w3.org/2000/svg" xmlns:xlink="http://www.w3.org/1999/xlink" zoomAndPan="magnify" viewBox="0 0 375 374.999991" preserveAspectRatio="xMidYMid meet" version="1.0"><path fill="#ffffff" d="M 153.132812 224.882812 C 153.046875 208.089844 152.902344 180.625 152.835938 163.855469 C 152.753906 147.0625 165.304688 140.136719 179.636719 148.457031 C 193.988281 156.78125 217.886719 170.398438 232.238281 178.699219 C 246.570312 187.019531 246.863281 200.742188 232.617188 209.214844 C 218.351562 217.683594 194.261719 231.535156 179.996094 240.003906 C 165.75 248.472656 153.21875 241.675781 153.132812 224.882812 Z M 153.132812 224.882812 " fill-opacity="1" fill-rule="nonzero"/><path fill="#8cc640" d="M 122.949219 181.832031 C 123.921875 122.75 139.121094 95.09375 158.066406 81.730469 C 168.648438 75.738281 177.347656 74.617188 185.476562 74.425781 C 191.46875 74.277344 197.226562 74.785156 202.773438 75.78125 C 220.382812 78.027344 259.078125 89.671875 295.910156 123.683594 C 276.332031 73.664062 216.65625 39.507812 161.980469 47.46875 C 119.964844 53.566406 83.492188 88.019531 79.957031 163.175781 C 76.929688 227.636719 105.503906 268.570312 127.394531 262.960938 C 125.042969 232.0625 122.589844 202.882812 122.949219 181.832031 Z M 122.949219 181.832031 " fill-opacity="1" fill-rule="nonzero"/><path fill="#f15b26" d="M 205.96875 254.296875 C 154.46875 283.226562 122.925781 284.050781 101.84375 274.414062 C 91.34375 268.273438 85.96875 261.351562 81.714844 254.425781 C 78.558594 249.320312 76.101562 244.113281 74.175781 238.796875 C 67.234375 222.449219 57.792969 183.144531 68.589844 134.1875 C 35.269531 176.304688 35.863281 245.085938 70.28125 288.308594 C 96.742188 321.511719 144.855469 335.65625 211.515625 300.84375 C 268.710938 270.964844 289.644531 225.644531 273.746094 209.574219 C 248.304688 227.171875 224.34375 243.984375 205.96875 254.296875 Z M 205.96875 254.296875 " fill-opacity="1" fill-rule="nonzero"/><path fill="#29aae2" d="M 227.664062 146.363281 C 278.109375 177.089844 294.300781 204.171875 296.226562 227.296875 C 296.039062 239.472656 292.609375 247.542969 288.691406 254.65625 C 285.792969 259.910156 282.449219 264.609375 278.785156 268.910156 C 267.949219 282.972656 238.335938 310.480469 190.367188 325.046875 C 243.394531 333.433594 303.023438 299.234375 323.808594 248.007812 C 339.769531 208.664062 328.507812 159.765625 265.492188 118.707031 C 211.429688 83.488281 161.683594 87.449219 155.460938 109.175781 C 183.277344 122.773438 209.671875 135.414062 227.664062 146.363281 Z M 227.664062 146.363281 " fill-opacity="1" fill-rule="nonzero"/></svg>